<?xml version="1.0" encoding="UTF-8" standalone="no"?>
<svg width="14px" height="20px" viewBox="0 0 14 20" version="1.1" xmlns="http://www.w3.org/2000/svg" xmlns:xlink="http://www.w3.org/1999/xlink">
    <!-- Generator: Sketch 50.2 (55047) - http://www.bohemiancoding.com/sketch -->
    <title>Phone</title>
    <desc>Created with Sketch.</desc>
    <defs></defs>
    <g id="Page-1" stroke="none" stroke-width="1" fill="none" fill-rule="evenodd">
        <g id="Extra-large:-Desktops---12-col" transform="translate(-1094.000000, -12.000000)" fill="#333333" fill-rule="nonzero">
            <g id="Phone" transform="translate(1091.000000, 12.000000)">
                <path d="M9.16132185,6.55869473 C8.69050759,7.89567811 8.31155035,9.35324449 8.31155035,10.8108108 C8.31155035,12.2683777 8.69050785,13.7259445 9.16132234,15.0629283 C9.36073762,14.978552 9.57878281,14.9320787 9.80723735,14.9320787 L11.1189189,14.9320787 C12.0682516,14.9320787 12.8378378,15.7345704 12.8378378,16.7244942 L12.8378378,19.1535305 C12.8378378,20.1434542 12.0682516,20.9459459 11.1189189,20.9459459 L9.80723735,20.9459459 C9.60085405,20.9459459 9.40296595,20.9080186 9.21963345,20.8384834 C6.67978003,20.1216303 4.72972973,15.9051505 4.72972973,10.8108108 C4.72972973,5.71647118 6.67978003,1.49999134 9.21963345,0.783138253 C9.40296595,0.713603051 9.60085405,0.675675676 9.80723735,0.675675676 L10.4630781,0.675675676 L11.1189189,0.675675676 C12.0682516,0.675675676 12.8378378,1.47816743 12.8378378,2.46809113 L12.8378378,4.8971275 C12.8378378,5.88705123 12.0682516,6.68954295 11.1189189,6.68954295 L9.80723735,6.68954295 C9.57878275,6.68954295 9.36073752,6.64306968 9.16132172,6.55869466 L9.16132185,6.55869473 Z" id="Combined-Shape" transform="translate(8.783784, 10.810811) rotate(-30.000000) translate(-8.783784, -10.810811) "></path>
            </g>
        </g>
    </g>
</svg>